<?xml version="1.0" standalone="no"?>
<!DOCTYPE svg PUBLIC "-//W3C//DTD SVG 20010904//EN"
 "http://www.w3.org/TR/2001/REC-SVG-20010904/DTD/svg10.dtd">
<svg version="1.0" xmlns="http://www.w3.org/2000/svg"
 width="482.000000pt" height="482.000000pt" viewBox="0 0 482.000000 482.000000"
 preserveAspectRatio="xMidYMid meet">
<metadata>
Created by potrace 1.11, written by Peter Selinger 2001-2013
</metadata>
<g transform="translate(0.000000,482.000000) scale(0.100000,-0.100000)"
fill="#000000" stroke="none">
<path d="M1883 3176 c-118 -38 -206 -141 -220 -257 -7 -57 6 -79 47 -79 32 0
70 40 70 72 0 45 64 121 117 139 87 28 173 -40 173 -138 1 -74 84 -93 126 -28
30 46 0 162 -59 223 -66 69 -168 96 -254 68z"/>
<path d="M2702 3164 c-88 -44 -141 -129 -142 -230 0 -59 19 -84 66 -84 45 0
63 19 74 77 16 90 60 133 135 133 74 0 133 -54 159 -145 17 -55 36 -75 75 -75
89 0 55 169 -56 270 -91 83 -211 104 -311 54z"/>
<path d="M1730 2085 c0 -4 16 -40 34 -79 99 -204 316 -334 586 -352 106 -7
166 2 302 47 106 35 185 84 258 159 53 55 131 182 119 194 -3 3 -30 -7 -60
-24 -68 -36 -210 -83 -309 -101 -116 -21 -443 -19 -548 4 -141 31 -281 87
-359 143 -13 9 -23 13 -23 9z"/>
<path d="M3370 1180 c-8 -5 -12 -12 -9 -15 4 -3 12 1 19 10 14 17 11 19 -10 5z"/>
<path d="M1514 1166 c11 -9 27 -16 35 -15 14 0 14 1 1 6 -8 3 -24 10 -35 15
-20 9 -20 9 -1 -6z"/>
<path d="M3320 1162 c-13 -2 -33 -10 -44 -17 -11 -8 -32 -12 -50 -9 -25 5 -28
3 -16 -6 13 -10 13 -11 -1 -7 -9 3 -99 -1 -200 -9 -324 -25 -1249 -12 -1249
18 0 5 -5 6 -10 3 -19 -12 -101 -14 -94 -3 5 7 1 9 -9 5 -10 -4 -28 -2 -41 4
-16 8 -30 8 -41 1 -15 -8 -1 -20 84 -72 100 -61 133 -88 93 -76 -11 4 -23 2
-27 -4 -4 -6 -16 -8 -26 -5 -11 4 -25 2 -32 -3 -7 -6 -30 -13 -52 -17 -45 -8
-135 -44 -150 -60 -19 -19 -37 -63 -31 -73 10 -17 101 -60 142 -68 21 -3 51
-13 66 -20 15 -8 44 -14 65 -14 21 0 65 -7 98 -15 33 -8 92 -14 130 -15 39 0
108 -5 155 -11 47 -5 213 -10 370 -10 391 1 627 20 829 67 116 28 149 42 185
81 l25 27 -36 31 c-21 16 -48 36 -61 42 -37 20 -182 54 -234 56 -57 2 -52 10
45 68 40 24 76 46 82 51 75 58 80 67 35 60z m-1720 -32 c8 -5 11 -10 5 -10 -5
0 -17 5 -25 10 -8 5 -10 10 -5 10 6 0 17 -5 25 -10z"/>
</g>
</svg>
